<?xml version="1.0" encoding="utf-8"?>
<!-- Generator: Adobe Illustrator 16.0.0, SVG Export Plug-In . SVG Version: 6.00 Build 0)  -->
<!DOCTYPE svg PUBLIC "-//W3C//DTD SVG 1.1//EN" "http://www.w3.org/Graphics/SVG/1.1/DTD/svg11.dtd">
<svg version="1.1" id="Layer_1" xmlns="http://www.w3.org/2000/svg" xmlns:xlink="http://www.w3.org/1999/xlink" x="0px" y="0px"
	 width="130.5px" height="135.5px" viewBox="0 0 130.5 135.5" enable-background="new 0 0 130.5 135.5" xml:space="preserve">
<path fill="#0A85C6" stroke="#0A85C6" stroke-width="10" stroke-miterlimit="10" d="M30,43C30,23.384,45.674,8.207,65.29,8.207
	c19.615,0,35.632,15.175,35.632,34.791l0,0L101,93.25c0,3.037-1.962,5.75-5,5.75H36c-3.038,0-6-2.963-6-6V43"/>
<circle fill="#FFFFFF" cx="50.01" cy="38.344" r="6.01"/>
<circle fill="#FFFFFF" cx="81.656" cy="38.344" r="6.01"/>
<line fill="none" stroke="#0A85C6" stroke-width="10" stroke-linecap="round" stroke-miterlimit="10" x1="101.747" y1="57.247" x2="122.253" y2="77.753"/>
<line fill="none" stroke="#0A85C6" stroke-width="10" stroke-linecap="round" stroke-miterlimit="10" x1="29.253" y1="57.247" x2="8.747" y2="77.753"/>
<line fill="none" stroke="#0A85C6" stroke-width="10" stroke-linecap="round" stroke-miterlimit="10" x1="79" y1="99" x2="79" y2="128"/>
<line fill="none" stroke="#0A85C6" stroke-width="10" stroke-linecap="round" stroke-miterlimit="10" x1="53" y1="99" x2="53" y2="128"/>
<g>
	<g id="favorite">
		<path fill="#FFFFFF" d="M78.656,74.5l-1.202-1.202c-4.465-3.951-7.384-6.611-7.384-9.874c0-2.663,2.061-4.724,4.722-4.724
			c1.46,0,2.919,0.687,3.864,1.803c0.945-1.116,2.404-1.803,3.865-1.803c2.661,0,4.722,2.061,4.722,4.724
			c0,3.262-2.919,5.922-7.385,9.874L78.656,74.5z"/>
	</g>
</g>
</svg>
