<?xml version="1.0" encoding="utf-8"?>
<!-- Generator: Adobe Illustrator 16.0.0, SVG Export Plug-In . SVG Version: 6.00 Build 0)  -->
<!DOCTYPE svg PUBLIC "-//W3C//DTD SVG 1.1//EN" "http://www.w3.org/Graphics/SVG/1.1/DTD/svg11.dtd">
<svg version="1.1" id="Capa_1" xmlns="http://www.w3.org/2000/svg" xmlns:xlink="http://www.w3.org/1999/xlink" x="0px" y="0px"
	 width="500px" height="500px" viewBox="0 0 500 500" enable-background="new 0 0 500 500" xml:space="preserve">
<g>
	<g>
		<path fill="#0A85C6" d="M496.008,411.502l-29.434-80.399c9.293-25.948,14.005-53.174,14.005-81.103
			C480.612,117.49,372.808,9.686,240.314,9.686C107.804,9.686,0,117.49,0,250s107.804,240.314,240.314,240.314
			c47.956,0,95.092-14.627,134.703-41.427l59.08,23.135c7.575,2.978,15.036,4.482,22.153,4.482c14.774,0,27.863-6.577,35.864-18.062
			C497.301,451.097,504.663,435.16,496.008,411.502z M456.283,443.783c-2.929,0-6.365-0.721-10.21-2.258l-75.899-29.696
			c-35.569,28.566-80.678,45.763-129.86,45.763C125.654,457.575,32.723,364.644,32.723,250S125.654,42.408,240.314,42.408
			c114.643,0,207.592,92.932,207.592,207.592c0,28.633-5.792,55.906-16.28,80.727l33.688,92.032
			C470.059,435.766,466.034,443.783,456.283,443.783z"/>
		<circle fill="#0A85C6" cx="333.36" cy="249.983" r="26.587"/>
		<circle fill="#0A85C6" cx="235.193" cy="249.983" r="26.587"/>
		<circle fill="#0A85C6" cx="137.025" cy="249.983" r="26.587"/>
	</g>
</g>
</svg>
