<?xml version="1.0" encoding="utf-8"?>
<!-- Generator: Adobe Illustrator 16.0.0, SVG Export Plug-In . SVG Version: 6.00 Build 0)  -->
<!DOCTYPE svg PUBLIC "-//W3C//DTD SVG 1.1//EN" "http://www.w3.org/Graphics/SVG/1.1/DTD/svg11.dtd">
<svg version="1.1" id="Capa_1" xmlns="http://www.w3.org/2000/svg" xmlns:xlink="http://www.w3.org/1999/xlink" x="0px" y="0px"
	 width="800px" height="600px" viewBox="0 0 800 600" enable-background="new 0 0 800 600" xml:space="preserve">
<g>
	<g>
		<path fill="#0A85C6" d="M400,240c-49.71,0-90,40.308-90,90c0,49.71,40.29,90,90,90c49.698,0,90-40.29,90-90
			C490,280.308,449.698,240,400,240z M640,150h-72c-9.9,0-20.568-7.68-23.694-17.076L525.694,77.07C522.556,67.68,511.9,60,502,60
			H298c-9.9,0-20.568,7.68-23.694,17.076l-18.612,55.854C252.556,142.32,241.9,150,232,150h-72c-33,0-60,27-60,60v270
			c0,33,27,60,60,60h480c33,0,60-27,60-60V210C700,177,673,150,640,150z M400,480c-82.842,0-150-67.158-150-150
			c0-82.836,67.158-150,150-150c82.83,0,150,67.164,150,150C550,412.842,482.83,480,400,480z M619,251.958c-11.592,0-21-9.396-21-21
			c0-11.592,9.408-21,21-21c11.604,0,21,9.408,21,21C640,242.562,630.598,251.958,619,251.958z"/>
	</g>
</g>
</svg>
