<?xml version="1.0" encoding="utf-8"?>
<!-- Generator: Adobe Illustrator 16.0.0, SVG Export Plug-In . SVG Version: 6.00 Build 0)  -->
<!DOCTYPE svg PUBLIC "-//W3C//DTD SVG 1.1//EN" "http://www.w3.org/Graphics/SVG/1.1/DTD/svg11.dtd">
<svg version="1.1" id="Layer_1" xmlns="http://www.w3.org/2000/svg" xmlns:xlink="http://www.w3.org/1999/xlink" x="0px" y="0px"
	 width="512px" height="512px" viewBox="0 0 512 512" enable-background="new 0 0 512 512" xml:space="preserve">
<g id="Layer_1_1_">
	<g id="Layer_3" display="none">
		<rect x="-52.998" y="-2.938" display="inline" fill="#C8C8C8" width="445.034" height="441.652"/>
		<line display="inline" fill="none" x1="89.43" y1="196.122" x2="243.865" y2="196.122"/>
	</g>
	<g id="Layer_2" display="none">
		<g display="inline">
			<path fill="none" stroke="#C8C8C8" stroke-width="5" stroke-linecap="round" stroke-miterlimit="10" d="M189.567,272.598
				c-3.598,13.498-21.291,15.896-27.889,6.926l0,0c-6.597,8.973-24.29,6.572-27.888-6.926"/>
		</g>
		<circle display="inline" fill="#DCDCDC" cx="94.457" cy="209.648" r="12.679"/>
		<circle display="inline" fill="#DCDCDC" cx="230.695" cy="209.648" r="12.679"/>
		<line display="inline" fill="none" x1="107.136" y1="104.843" x2="107.136" y2="265.436"/>
		<line display="inline" fill="none" x1="218.017" y1="104.843" x2="218.017" y2="272.598"/>
	</g>
</g>
<g id="Layer_2_1_">
	<g id="Layer_3_1_">
		<g>
			<path fill="#FFFFFF" d="M219.369,384.14c0.083-0.025,0.15-0.049,0.15-0.05C219.469,384.106,219.419,384.123,219.369,384.14z"/>
			<path fill="#FFFFFF" d="M218.916,384.289c0.152-0.047,0.302-0.099,0.453-0.149C219.19,384.197,218.916,384.284,218.916,384.289z"
				/>
			<path fill="#FFFFFF" d="M226.814,420.801c-0.04-0.109-0.085-0.231-0.144-0.387c-0.083-0.184-0.155-0.34-0.221-0.483
				c-2.687-7-7.534-30.455-7.534-35.642l-4.61-25.598c-1.955-9.896-4.87-19.691-8.876-28.07c-2.035-1.171-4.009-2.387-5.907-3.655
				c-6.852-4.582-13.437-10.525-19.754-17.838c-6.319-7.31-11.615-15.594-15.886-24.854c-4.27-9.26-7.651-20.369-10.143-33.333
				C151.248,237.98,150,223.7,150,208.107c0-30.213,8.988-55.944,26.964-77.192c-3.751-10.628-5.573-21.733-5.513-33.303
				c-2.981-0.122-5.976-0.19-8.99-0.19c-19.342,0-37.785,2.474-55.33,7.423c-7.946-5.399-15.48-9.859-22.603-13.383
				c-7.124-3.524-12.82-5.923-17.094-7.197c-4.274-1.275-8.247-2.062-11.92-2.361c-3.673-0.299-6.035-0.376-7.085-0.225
				c-1.05,0.15-1.798,0.299-2.249,0.45c-8.397,21.292-9.147,40.859-2.25,58.7c-15.144,16.345-22.716,36.136-22.716,59.377
				c0,11.995,1.051,22.979,3.148,32.948c2.098,9.971,4.948,18.52,8.547,25.64c3.598,7.123,8.06,13.496,13.383,19.119
				c5.323,5.621,10.869,10.194,16.643,13.717c5.773,3.524,12.295,6.562,19.567,9.108c7.271,2.55,14.169,4.5,20.691,5.849
				c6.522,1.353,19.344,3.375,27.141,4.127c-16.111,16.111-20.124,29.037-21.591,49.178l-2.514,25.068
				c-0.053-0.016-0.026-0.008,0,0.001l-6.138,36.598c20.601,6.045,38.804,8.281,61.361,8.281c24.29,0,43.466-1.7,65.433-8.67
				c0.271,0.604,0.42,0.879,0.09-0.027C226.924,421.042,226.869,420.919,226.814,420.801z"/>
		</g>
		<g id="Layer_2_5_" display="none">
			<g display="inline">
				<path fill="none" stroke="#C8C8C8" stroke-width="5" stroke-linecap="round" stroke-miterlimit="10" d="M213.963,191.765
					c-3.93,16.138-23.245,19.006-30.447,8.283l0,0c-7.204,10.726-26.519,7.855-30.448-8.283"/>
			</g>
			<ellipse display="inline" fill="#DCDCDC" cx="110.125" cy="116.491" rx="13.842" ry="15.161"/>
			<ellipse display="inline" fill="#DCDCDC" cx="258.864" cy="116.491" rx="13.843" ry="15.161"/>
			<line display="inline" fill="none" x1="123.968" y1="-8.832" x2="123.968" y2="183.201"/>
			<line display="inline" fill="none" x1="245.022" y1="-8.832" x2="245.022" y2="191.765"/>
		</g>
	</g>
	<g id="Capa_1_3_">
		<g>
			<path fill="#FFFFFF" d="M259.377,459.795c23.29,6.832,43.867,9.361,69.365,9.361c27.498,0,49.195-1.924,74.072-9.83
				c-1.482-3.033,0.838,2.301-0.348-0.824c-2.308-5.076,1.468,3.904,0.348,0.824c-2.85-5.5-9.112-35.395-9.112-41.662
				c0-0.01,0.683-0.219,0.683-0.225c-0.229,0.072-0.453,0.15-0.683,0.225l-5.211-28.936c-4.38-22.16-13.009-43.898-27.079-53.562
				c8.814-0.85,28.093-3.812,35.466-5.34s15.173-3.729,23.392-6.611c8.224-2.881,15.594-6.312,22.12-10.295
				c6.525-3.982,12.798-9.152,18.812-15.51c6.018-6.354,11.06-13.562,15.129-21.613c4.066-8.049,7.29-17.711,9.66-28.982
				c2.373-11.271,3.56-23.689,3.56-37.247c0-26.272-8.56-48.646-25.68-67.122c7.8-20.34,6.95-42.459-2.542-66.357l-6.354-0.763
				c-4.405-0.509-12.33,1.355-23.771,5.593c-11.444,4.238-24.283,11.188-38.521,20.849c-20.17-5.593-41.104-8.391-62.8-8.391
				c-21.864,0-42.714,2.796-62.546,8.391c-8.982-6.103-17.501-11.145-25.553-15.128c-8.052-3.983-14.493-6.696-19.324-8.136
				c-4.83-1.441-9.321-2.332-13.474-2.669c-4.153-0.338-6.822-0.425-8.01-0.254c-1.187,0.17-2.033,0.338-2.543,0.509
				c-9.492,24.069-10.338,46.188-2.542,66.357c-17.12,18.477-25.68,40.85-25.68,67.122c0,13.559,1.189,25.976,3.561,37.247
				c2.373,11.271,5.593,20.934,9.661,28.982c4.068,8.054,9.111,15.259,15.129,21.613c6.017,6.354,12.289,11.527,18.814,15.51
				c6.525,3.983,13.898,7.414,22.119,10.295c8.22,2.883,16.018,5.086,23.39,6.611c7.373,1.524,21.868,3.812,30.685,4.662
				c-18.215,18.215-22.752,32.828-24.409,55.596l-2.841,28.338c-0.121-0.035,0.121,0.037,0,0"/>
		</g>
	</g>
</g>
</svg>
