<?xml version="1.0" encoding="utf-8"?>
<!-- Generator: Adobe Illustrator 16.0.0, SVG Export Plug-In . SVG Version: 6.00 Build 0)  -->
<!DOCTYPE svg PUBLIC "-//W3C//DTD SVG 1.1//EN" "http://www.w3.org/Graphics/SVG/1.1/DTD/svg11.dtd">
<svg version="1.1" id="Layer_1" xmlns="http://www.w3.org/2000/svg" xmlns:xlink="http://www.w3.org/1999/xlink" x="0px" y="0px"
	 width="217px" height="89px" viewBox="0 0 217 89" enable-background="new 0 0 217 89" xml:space="preserve">
<path fill="#FFFFFF" d="M62.963,64.862c0,3.037-2.462,5.5-5.5,5.5h-47c-3.038,0-5.5-2.463-5.5-5.5V21.529c0-3.038,2.462-5.5,5.5-5.5
	h47c3.038,0,5.5,2.462,5.5,5.5V64.862z"/>
<g>
	<path fill="#0A85C6" d="M53.327,57.986L41.352,35.833V22.635c0-1.241-1.039-2.231-2.279-2.231H26.85
		c-1.242,0-2.264,0.99-2.264,2.231v13.197L12.602,57.986c-0.914,1.688-0.868,3.74,0.115,5.391c0.983,1.649,2.766,2.668,4.686,2.668
		h31.115c1.92,0,3.707-1.019,4.69-2.668C54.189,61.727,54.241,59.676,53.327,57.986z"/>
</g>
<g display="none">
	<path display="inline" fill="#0A85C6" d="M53.45,57.986L42.721,35.833V22.635c0-1.241-0.931-2.231-2.042-2.231h-10.95
		c-1.113,0-2.028,0.99-2.028,2.231v13.197L16.962,57.986c-0.819,1.688-0.778,3.74,0.104,5.391c0.881,1.649,2.478,2.668,4.198,2.668
		h27.876c1.721,0,3.321-1.019,4.202-2.668C54.223,61.727,54.268,59.676,53.45,57.986z"/>
</g>
<path fill="#0A85C6" d="M45.018,23.133c0,1.513-0.973,2.896-2.362,2.896H23.534c-1.39,0-2.516-1.383-2.516-2.896V22.77
	c0-1.513,1.126-2.74,2.516-2.74h19.122c1.389,0,2.362,1.227,2.362,2.74V23.133z"/>
<path display="none" fill="#0A85C6" d="M45.018,23.133c0,1.513-0.849,2.896-2.064,2.896H26.25c-1.212,0-2.232-1.383-2.232-2.896
	V22.77c0-1.513,1.02-2.74,2.232-2.74h16.703c1.216,0,2.065,1.227,2.065,2.74V23.133z"/>
<line fill="none" stroke="#FFFFFF" stroke-width="2" stroke-linecap="round" stroke-miterlimit="10" x1="39.018" y1="27.029" x2="39.018" y2="34.029"/>
<circle fill="#FFFFFF" cx="41.134" cy="22.718" r="1.244"/>
<text transform="matrix(1 0 0 1 71.6846 58.2031)" fill="#FFFFFF" font-family="'Rockwell'" font-size="34">matchSci</text>
<text transform="matrix(1 0 0 1 22.1279 62.0898)" fill="#FFFFFF" font-family="'HoboStd'" font-size="28">m</text>
<g id="heart_2_" display="none">
	<path id="heart" display="inline" fill="#ED1C24" d="M33.017,61.578l-1.36-1.376c-5.056-4.521-8.361-7.565-8.361-11.301
		c0-3.046,2.334-5.405,5.349-5.405c1.651,0,3.305,0.787,4.373,2.064c1.07-1.277,2.723-2.064,4.375-2.064
		c3.015,0,5.349,2.359,5.349,5.405c0,3.733-3.306,6.78-8.361,11.301L33.017,61.578z"/>
	<circle display="inline" fill="#EDC0C0" cx="38.54" cy="47.129" r="1.65"/>
	<g display="inline">
		<g>
			<defs>
				<path id="SVGID_1_" d="M32.961,61.195l-1.36-1.376c-5.056-4.521-8.361-7.565-8.361-11.301c0-3.046,2.334-5.405,5.349-5.405
					c1.651,0,3.305,0.787,4.373,2.064c1.07-1.277,2.723-2.064,4.375-2.064c3.015,0,5.349,2.359,5.349,5.405
					c0,3.733-3.306,6.78-8.361,11.301L32.961,61.195z"/>
			</defs>
			<clipPath id="SVGID_2_">
				<use xlink:href="#SVGID_1_"  overflow="visible"/>
			</clipPath>
			<g clip-path="url(#SVGID_2_)">
				<g>
					<path fill="#D6392D" d="M20.676,42.698c-2.338,8.987,2.163,14.545,7.721,21c2.528,2.937,6.753-1.327,4.242-4.242
						c-4.046-4.7-7.907-8.515-6.178-15.164C27.437,40.545,21.648,38.956,20.676,42.698L20.676,42.698z"/>
				</g>
			</g>
		</g>
	</g>
</g>
<polygon fill="#0A85C6" points="38.783,52.438 36.817,51.678 34.851,50.92 36.301,50.09 37.75,49.26 38.267,50.85 "/>
<polygon fill="#0A85C6" points="33.33,51.342 30.833,51.473 28.335,51.604 29.499,49.92 30.664,48.233 31.997,49.787 "/>
</svg>
