<?xml version="1.0" encoding="utf-8"?>
<!-- Generator: Adobe Illustrator 16.0.0, SVG Export Plug-In . SVG Version: 6.00 Build 0)  -->
<!DOCTYPE svg PUBLIC "-//W3C//DTD SVG 1.1//EN" "http://www.w3.org/Graphics/SVG/1.1/DTD/svg11.dtd">
<svg version="1.1" id="Layer_1" xmlns="http://www.w3.org/2000/svg" xmlns:xlink="http://www.w3.org/1999/xlink" x="0px" y="0px"
	 width="217px" height="89px" viewBox="0 0 217 89" enable-background="new 0 0 217 89" xml:space="preserve">
<g>
	<path fill="#0A85C6" d="M68.309,57.957L56.334,35.804V22.606c0-1.241-1.039-2.231-2.279-2.231H41.832
		c-1.242,0-2.264,0.99-2.264,2.231v13.197L27.584,57.957c-0.914,1.688-0.868,3.74,0.115,5.391c0.983,1.649,2.766,2.668,4.686,2.668
		H63.5c1.92,0,3.707-1.019,4.69-2.668C69.172,61.697,69.223,59.646,68.309,57.957z"/>
</g>
<g display="none">
	<path display="inline" fill="#0A85C6" d="M68.432,57.957L57.703,35.804V22.606c0-1.241-0.931-2.231-2.042-2.231h-10.95
		c-1.113,0-2.028,0.99-2.028,2.231v13.197L31.945,57.957c-0.819,1.688-0.778,3.74,0.104,5.391c0.881,1.649,2.478,2.668,4.198,2.668
		h27.876c1.721,0,3.321-1.019,4.202-2.668C69.205,61.697,69.25,59.646,68.432,57.957z"/>
</g>
<path fill="#0A85C6" d="M60,23.104C60,24.617,59.027,26,57.638,26H38.516C37.126,26,36,24.617,36,23.104V22.74
	c0-1.513,1.126-2.74,2.516-2.74h19.122C59.027,20,60,21.227,60,22.74V23.104z"/>
<path display="none" fill="#0A85C6" d="M60,23.104C60,24.617,59.151,26,57.936,26H41.232C40.02,26,39,24.617,39,23.104V22.74
	c0-1.513,1.02-2.74,2.232-2.74h16.703C59.151,20,60,21.227,60,22.74V23.104z"/>
<line fill="none" stroke="#FFFFFF" stroke-width="2" stroke-linecap="round" stroke-miterlimit="10" x1="54" y1="27" x2="54" y2="34"/>
<circle fill="#FFFFFF" cx="56.116" cy="22.689" r="1.244"/>
<text transform="matrix(1 0 0 1 76.667 59.5078)" fill="#0A85C6" font-family="'Rockwell'" font-size="28">matchSci</text>
<text transform="matrix(1 0 0 1 37.1104 62.0605)" fill="#FFFFFF" font-family="'HoboStd'" font-size="28">m</text>
<g id="heart_2_" display="none">
	<path id="heart" display="inline" fill="#ED1C24" d="M47.999,61.549l-1.36-1.376c-5.056-4.521-8.361-7.566-8.361-11.301
		c0-3.046,2.334-5.405,5.349-5.405c1.651,0,3.305,0.787,4.373,2.064c1.07-1.277,2.723-2.064,4.375-2.064
		c3.015,0,5.349,2.359,5.349,5.405c0,3.734-3.306,6.78-8.361,11.301L47.999,61.549z"/>
	<circle display="inline" fill="#EDC0C0" cx="53.522" cy="47.1" r="1.65"/>
	<g display="inline">
		<defs>
			<path id="heart_1_" d="M47.944,61.166l-1.36-1.376c-5.056-4.521-8.361-7.566-8.361-11.301c0-3.046,2.334-5.405,5.349-5.405
				c1.651,0,3.305,0.787,4.373,2.064c1.07-1.277,2.723-2.064,4.375-2.064c3.015,0,5.349,2.359,5.349,5.405
				c0,3.734-3.306,6.78-8.361,11.301L47.944,61.166z"/>
		</defs>
		<clipPath id="heart_3_">
			<use xlink:href="#heart_1_"  overflow="visible"/>
		</clipPath>
		<g clip-path="url(#heart_3_)">
			<g>
				<path fill="#D6392D" d="M35.658,42.669c-2.338,8.987,2.163,14.545,7.721,21c2.528,2.937,6.753-1.327,4.242-4.242
					c-4.046-4.7-7.907-8.515-6.178-15.164C42.419,40.516,36.631,38.927,35.658,42.669L35.658,42.669z"/>
			</g>
		</g>
	</g>
</g>
<polygon fill="#0A85C6" points="53.765,52.409 51.8,51.649 49.833,50.89 51.283,50.061 52.733,49.231 53.249,50.82 "/>
<polygon fill="#0A85C6" points="48.312,51.312 45.815,51.444 43.318,51.575 44.481,49.89 45.646,48.204 46.979,49.758 "/>
</svg>
