<?xml version="1.0" encoding="utf-8"?>
<!-- Generator: Adobe Illustrator 16.0.0, SVG Export Plug-In . SVG Version: 6.00 Build 0)  -->
<!DOCTYPE svg PUBLIC "-//W3C//DTD SVG 1.1//EN" "http://www.w3.org/Graphics/SVG/1.1/DTD/svg11.dtd">
<svg version="1.1" id="Capa_1" xmlns="http://www.w3.org/2000/svg" xmlns:xlink="http://www.w3.org/1999/xlink" x="0px" y="0px"
	 width="800px" height="600px" viewBox="0 0 800 600" enable-background="new 0 0 800 600" xml:space="preserve">
<g>
	<path fill="#FFFFFF" d="M648.117,206.463H514.53V98.15c0-28.148-23.134-51.281-51.281-51.281H151.281
		C123.134,46.869,100,70.002,100,98.15v187.743c0,28.148,23.134,51.281,51.281,51.281h30.354l38.243,51.281
		c2.14,3.61,6.485,5.081,10.832,5.081s7.957-2.14,10.832-5.081l38.244-51.281h5.75v108.312c0,28.147,23.134,51.28,51.281,51.28
		h183.396l38.244,51.281c2.14,3.61,6.484,5.081,10.831,5.081s7.957-2.14,10.832-5.081l38.243-51.281h30.354
		c28.148,0,51.281-23.134,51.281-51.28V257.744C700.066,229.529,677,206.463,648.117,206.463z M272.632,310.43
		c-4.346,0-7.957,2.141-10.832,5.081l-31.758,41.854l-31.758-41.854c-2.14-3.609-6.485-5.081-10.832-5.081h-37.575
		c-13.706,0-24.538-10.832-24.538-24.538V98.15c0-13.706,10.832-24.538,24.538-24.538h311.968c13.707,0,24.537,10.832,24.537,24.538
		v122.02v65.723c0,13.707-10.831,24.538-24.537,24.538H298.574L272.632,310.43L272.632,310.43z M673.39,445.486
		c0,13.707-10.832,24.538-24.536,24.538h-37.575c-4.347,0-7.957,2.14-10.832,5.081l-31.758,41.854l-31.76-41.854
		c-2.14-3.61-6.484-5.081-10.831-5.081H336.884c-13.707,0-24.538-10.831-24.538-24.538V337.174h150.903
		c10.097,0,19.522-2.875,27.413-7.957h101.092c7.221,0,12.971-5.749,12.971-12.971s-5.75-12.971-12.971-12.971h-79.43
		c2.14-5.083,2.875-10.833,2.875-17.317v-52.016h133.585c13.707,0,24.538,10.832,24.538,24.538v187.007L673.39,445.486
		L673.39,445.486z M604.056,390.596c0,7.221-5.749,12.972-12.971,12.972H394.651c-7.22,0-12.971-5.75-12.971-12.972
		s5.75-12.972,12.971-12.972h196.434C598.239,377.558,604.056,383.374,604.056,390.596z M404.012,243.971H208.313
		c-7.22,0-12.971-5.75-12.971-12.971s5.75-12.971,12.971-12.971h195.699c7.221,0,12.972,5.75,12.972,12.971
		C417.718,238.222,411.232,243.971,404.012,243.971z M195.342,155.917c0-7.221,5.75-12.971,12.971-12.971h117.673
		c7.22,0,12.971,5.75,12.971,12.971c0,7.22-5.75,12.971-12.971,12.971H208.313C201.092,168.887,195.342,163.138,195.342,155.917z"/>
</g>
</svg>
