<?xml version="1.0" encoding="utf-8"?>
<!-- Generator: Adobe Illustrator 16.0.0, SVG Export Plug-In . SVG Version: 6.00 Build 0)  -->
<!DOCTYPE svg PUBLIC "-//W3C//DTD SVG 1.1//EN" "http://www.w3.org/Graphics/SVG/1.1/DTD/svg11.dtd">
<svg version="1.1" id="Capa_1" xmlns="http://www.w3.org/2000/svg" xmlns:xlink="http://www.w3.org/1999/xlink" x="0px" y="0px"
	 width="800px" height="600px" viewBox="0 0 800 600" enable-background="new 0 0 800 600" xml:space="preserve">
<g>
	<g id="c104_arrow">
		<path fill="#FFFFFF" stroke="#FFFFFF" stroke-miterlimit="10" d="M406.456,37.193l218.791,212.771c0,0,26.665,25.286-2.364,25.286
			c-28.985,0-99.194,0-99.194,0s0,17.032,0,43.194c0,74.937,0,211.063,0,266.473c0,0,4.028,15.084-18.893,15.084
			c-22.834,0-208.678,0-225.053,0c-16.288,0-15.916-12.609-15.916-12.609c0-53.921,0-194.755,0-267.087c0-23.424,0-38.749,0-38.749
			s-56.263,0-91.598,0c-35.334,0-8.691-26.446-8.691-26.446S355.994,56.327,376.812,35.485
			C391.985,20.292,406.456,37.193,406.456,37.193z"/>
	</g>
	<g id="Capa_1_71_">
	</g>
</g>
<line fill="#FFFFFF" stroke="#FFFFFF" stroke-width="50" stroke-linecap="round" stroke-miterlimit="10" x1="574.51" y1="94.33" x2="700.095" y2="94.33"/>
<line fill="#FFFFFF" stroke="#FFFFFF" stroke-width="50" stroke-linecap="round" stroke-miterlimit="10" x1="637.302" y1="31.537" x2="637.302" y2="157.122"/>
</svg>
