<?xml version="1.0" encoding="utf-8"?>
<!-- Generator: Adobe Illustrator 16.0.0, SVG Export Plug-In . SVG Version: 6.00 Build 0)  -->
<!DOCTYPE svg PUBLIC "-//W3C//DTD SVG 1.1//EN" "http://www.w3.org/Graphics/SVG/1.1/DTD/svg11.dtd">
<svg version="1.1" xmlns="http://www.w3.org/2000/svg" xmlns:xlink="http://www.w3.org/1999/xlink" x="0px" y="0px" width="209px"
	 height="72px" viewBox="0 0 209 72" enable-background="new 0 0 209 72" xml:space="preserve">
<g id="Layer_1">
</g>
<g id="Layer_2">
	<g>
		<path fill="#29ABE2" d="M62.309,50.957L50.334,28.804V15.606c0-1.241-1.039-2.231-2.279-2.231H35.832
			c-1.242,0-2.264,0.99-2.264,2.231v13.197L21.584,50.957c-0.914,1.688-0.868,3.74,0.115,5.391c0.983,1.649,2.766,2.668,4.686,2.668
			H57.5c1.92,0,3.707-1.019,4.69-2.668C63.172,54.697,63.223,52.646,62.309,50.957z"/>
	</g>
	<path id="heart" fill="#ED1C24" d="M41.999,54.549l-1.36-1.376c-5.056-4.521-8.361-7.566-8.361-11.301
		c0-3.046,2.334-5.405,5.349-5.405c1.651,0,3.305,0.787,4.373,2.064c1.07-1.277,2.723-2.064,4.375-2.064
		c3.015,0,5.349,2.359,5.349,5.405c0,3.734-3.306,6.78-8.361,11.301L41.999,54.549z"/>
	<path fill="#29ABE2" d="M54,16.104C54,17.617,53.027,19,51.638,19H32.516C31.126,19,30,17.617,30,16.104V15.74
		c0-1.513,1.126-2.74,2.516-2.74h19.122C53.027,13,54,14.227,54,15.74V16.104z"/>
	
		<line fill="none" stroke="#FFFFFF" stroke-width="2" stroke-linecap="round" stroke-miterlimit="10" x1="48" y1="21" x2="48" y2="28"/>
	<line fill="none" x1="50.334" y1="15.606" x2="50.872" y2="16.449"/>
	<circle fill="#FFFFFF" cx="50.116" cy="15.689" r="1.244"/>
	<circle fill="#EDC0C0" cx="47.522" cy="40.1" r="1.65"/>
	<text transform="matrix(1 0 0 1 70.667 45.5078)" fill="#3FA9F5" font-family="'Rockwell'" font-size="28">matchSci</text>
</g>
</svg>
