<?xml version="1.0" encoding="utf-8"?>
<!-- Generator: Adobe Illustrator 16.0.0, SVG Export Plug-In . SVG Version: 6.00 Build 0)  -->
<!DOCTYPE svg PUBLIC "-//W3C//DTD SVG 1.1//EN" "http://www.w3.org/Graphics/SVG/1.1/DTD/svg11.dtd">
<svg version="1.1" id="Capa_1" xmlns="http://www.w3.org/2000/svg" xmlns:xlink="http://www.w3.org/1999/xlink" x="0px" y="0px"
	 width="800px" height="600px" viewBox="0 0 800 600" enable-background="new 0 0 800 600" xml:space="preserve">
<path fill="#F1DA57" d="M692.6,250.479c6.589-5.787,9.057-14.938,6.273-23.245c-2.782-8.31-10.28-14.131-19.02-14.782
	l-174.213-13.004c-8.092-0.615-15.157-5.645-18.349-13.083L418.103,25.944c-3.476-8.028-11.428-13.218-20.188-13.122
	c-8.74,0.081-16.593,5.39-19.912,13.498l-66.203,161.681c-3.058,7.501-10.047,12.67-18.116,13.417L119.727,217.64
	c-8.716,0.809-16.1,6.769-18.726,15.117c-2.623,8.349,0.021,17.468,6.688,23.127l133.303,112.938
	c6.18,5.251,8.939,13.478,7.166,21.373l-38.323,170.458c-1.917,8.546,1.458,17.406,8.601,22.497
	c7.145,5.071,16.614,5.389,24.075,0.768l148.575-91.9c6.887-4.259,15.572-4.342,22.555-0.194l150.254,89.117
	c7.521,4.461,17.009,3.988,24.034-1.222c7.027-5.21,10.264-14.151,8.17-22.652l-41.443-169.713
	c-1.934-7.875,0.67-16.164,6.75-21.508L692.6,250.479z"/>
</svg>
